# xmcd
#
# Track frame offsets:
#	150
#	16335
#	46035
#
# Disc length: 965 seconds
#
# Revision: 0
# Processed by: cddbd v1.5.1PL0 Copyright (c) Steve Scherf et al.
# Submitted via: dBpowerAMP V4.0
#
DISCID=1603c303
DTITLE=Perfect Phase - MAXI - Horny Horns
DYEAR=1999
DGENRE=
TTITLE0=Horny Horns (Radio Edit)
TTITLE1=Horny Horns (Clubmix)
TTITLE2=Bootleg Horns (Clubmix)
EXTD=
EXTT0=
EXTT1=
EXTT2=
PLAYORDER=
